<svg width="15" height="15" viewBox="0 0 15 15" fill="none" xmlns="http://www.w3.org/2000/svg">
<path d="M7.50879 0C3.37929 0 0.0176176 3.35879 0.0161176 7.48829C0.0153676 8.80829 0.361103 10.0969 1.0166 11.2324L0 15L3.92432 14.0728C5.01857 14.6698 6.2504 14.9831 7.5044 14.9839H7.50733C11.6361 14.9839 14.9963 11.6244 14.9985 7.49562C15 5.49386 14.2216 3.61181 12.8071 2.19581C11.3926 0.780555 9.51279 0.00075 7.50879 0ZM7.50733 1.5C9.10933 1.50075 10.6148 2.12535 11.7466 3.25635C12.8783 4.38885 13.5 5.89364 13.4985 7.49414C13.497 10.7971 10.8104 13.4839 7.50587 13.4839C6.50612 13.4831 5.51581 13.2321 4.64356 12.7559L4.13819 12.4805L3.58008 12.6123L2.10352 12.9609L2.46387 11.6221L2.62647 11.0215L2.31593 10.4824C1.79243 9.57642 1.51537 8.54053 1.51612 7.48828C1.51762 4.18678 4.20508 1.5 7.50733 1.5ZM4.85742 4.03125C4.73217 4.03125 4.52966 4.07813 4.35791 4.26563C4.18616 4.45238 3.70166 4.90469 3.70166 5.82569C3.70166 6.74669 4.37255 7.63696 4.4663 7.76221C4.5593 7.88671 5.76131 9.83643 7.66406 10.5864C9.24506 11.2097 9.56616 11.0867 9.90966 11.0552C10.2532 11.0244 11.0178 10.6033 11.1738 10.166C11.3298 9.72877 11.3302 9.35265 11.2837 9.2754C11.2372 9.1974 11.1123 9.15088 10.9248 9.05713C10.738 8.96338 9.81774 8.51147 9.64599 8.44922C9.47424 8.38697 9.34861 8.35547 9.22411 8.54297C9.09961 8.73047 8.74182 9.15089 8.63232 9.27539C8.52282 9.40064 8.41405 9.41748 8.22655 9.32373C8.03905 9.22923 7.43619 9.03104 6.72069 8.39355C6.16419 7.8978 5.78869 7.28613 5.67919 7.09863C5.57044 6.91187 5.66894 6.8093 5.76269 6.7163C5.84669 6.6323 5.94872 6.49767 6.04248 6.38817C6.13548 6.27867 6.16773 6.20066 6.22998 6.07616C6.29222 5.95166 6.26036 5.84178 6.21386 5.74803C6.16736 5.65428 5.80321 4.72986 5.63671 4.35936C5.49646 4.04811 5.34833 4.04088 5.21483 4.03563C5.10608 4.03113 4.98192 4.03125 4.85742 4.03125Z" fill="#AB7243"/>
</svg>
