<svg xmlns="http://www.w3.org/2000/svg" xmlns:xlink="http://www.w3.org/1999/xlink" width="500" zoomAndPan="magnify" viewBox="0 0 375 374.999991" height="500" preserveAspectRatio="xMidYMid meet" version="1.0"><defs><clipPath id="e2cc4bafc9"><path d="M 26.398438 146 L 348.898438 146 L 348.898438 375 L 26.398438 375 Z M 26.398438 146 " clip-rule="nonzero"/></clipPath><clipPath id="cbe5fd43db"><path d="M 120 0 L 348.898438 0 L 348.898438 259 L 120 259 Z M 120 0 " clip-rule="nonzero"/></clipPath></defs><g clip-path="url(#e2cc4bafc9)"><path fill="#cb6ce6" d="M 342.601562 331.328125 C 318.628906 355.300781 286.726562 368.527344 252.796875 368.527344 C 218.867188 368.527344 187.007812 355.300781 163.035156 331.328125 C 113.550781 281.84375 113.550781 201.285156 163.035156 151.761719 C 164.3125 150.484375 164.3125 148.457031 163.035156 147.179688 C 161.757812 145.902344 159.726562 145.902344 158.449219 147.179688 C 127.414062 178.253906 115.050781 220.9375 121.066406 261.367188 C 71.390625 255.917969 32.953125 213.496094 32.953125 163.070312 C 32.953125 161.269531 31.527344 159.839844 29.722656 159.839844 C 27.917969 159.839844 26.492188 161.269531 26.492188 163.070312 C 26.492188 217.367188 68.347656 262.980469 122.117188 267.976562 C 127.113281 292.890625 139.210938 316.636719 158.488281 335.875 C 183.699219 361.085938 217.179688 374.949219 252.835938 374.949219 C 288.492188 374.949219 321.972656 361.085938 347.183594 335.875 C 348.460938 334.597656 348.460938 332.566406 347.183594 331.289062 C 345.90625 330.085938 343.878906 330.085938 342.601562 331.328125 Z M 342.601562 331.328125 " fill-opacity="1" fill-rule="nonzero"/></g><g clip-path="url(#cbe5fd43db)"><path fill="#cb6ce6" d="M 123.730469 5.714844 L 230.894531 5.714844 L 230.894531 163.070312 C 230.894531 201.210938 208.574219 236.378906 174.042969 252.6875 C 172.429688 253.4375 171.75 255.355469 172.503906 256.96875 C 173.066406 258.132812 174.230469 258.808594 175.433594 258.808594 C 175.882812 258.808594 176.375 258.699219 176.824219 258.507812 C 213.609375 241.1875 237.394531 203.726562 237.394531 163.070312 L 237.394531 115.578125 C 276.46875 110.808594 314.71875 123.921875 342.601562 151.800781 C 343.238281 152.4375 344.066406 152.738281 344.890625 152.738281 C 345.71875 152.738281 346.546875 152.4375 347.183594 151.800781 C 348.460938 150.523438 348.460938 148.492188 347.183594 147.214844 C 318.0625 118.097656 278.199219 104.34375 237.394531 109.078125 L 237.394531 2.480469 C 237.394531 0.679688 235.964844 -0.75 234.160156 -0.75 L 123.730469 -0.75 C 121.929688 -0.75 120.5 0.679688 120.5 2.480469 C 120.5 4.285156 121.964844 5.714844 123.730469 5.714844 Z M 123.730469 5.714844 " fill-opacity="1" fill-rule="nonzero"/></g></svg>