<svg width="26" height="26" viewBox="0 0 26 26" fill="none" xmlns="http://www.w3.org/2000/svg">
<g clip-path="url(#clip0_5_1135)">
<path d="M0.543442 24.6071L2.23012 18.4495C1.18956 16.6476 0.642363 14.6028 0.642989 12.5086C0.64612 5.95658 5.97787 0.626083 12.5305 0.626083C15.7104 0.627336 18.6943 1.86511 20.9388 4.11088C23.1827 6.35728 24.4186 9.34246 24.4174 12.518C24.4149 19.07 19.0819 24.4011 12.5305 24.4011H12.5255C10.5364 24.4005 8.58114 23.9015 6.845 22.9542L0.543442 24.6071Z" fill="white"/>
<path d="M0.543441 24.9201C0.460797 24.9201 0.380658 24.8876 0.32118 24.8275C0.242919 24.748 0.212241 24.6321 0.241667 24.5251L1.89391 18.4921C0.869632 16.6727 0.329319 14.6066 0.330571 12.5092C0.333075 5.78379 5.8057 0.313049 12.5305 0.313049C15.7924 0.314301 18.8571 1.58463 21.1605 3.88988C23.4638 6.19576 24.7317 9.25982 24.7304 12.518C24.7279 19.2428 19.2547 24.7141 12.5305 24.7141C10.5339 24.7135 8.5586 24.2208 6.80556 23.2885L0.622953 24.9095C0.596658 24.917 0.570362 24.9201 0.543441 24.9201Z" fill="white"/>
<path d="M12.5305 0.626086C15.7104 0.627339 18.6943 1.86511 20.9388 4.11088C23.1827 6.35728 24.4186 9.34246 24.4174 12.518C24.4149 19.07 19.0819 24.4011 12.5305 24.4011H12.5255C10.5364 24.4005 8.58114 23.9015 6.845 22.9542L0.543441 24.6071L2.23012 18.4495C1.18956 16.6476 0.642363 14.6028 0.642989 12.5086C0.646119 5.95659 5.97787 0.626086 12.5305 0.626086ZM12.5305 0C5.63352 0 0.0200328 5.61099 0.0169023 12.5086C0.0162763 14.6166 0.54845 16.694 1.5577 18.5328L-0.0607323 24.4424C-0.119584 24.6584 -0.0594801 24.8888 0.0982936 25.0478C0.21725 25.168 0.378154 25.2338 0.543441 25.2338C0.596658 25.2338 0.649876 25.2269 0.702467 25.2131L6.76737 23.6229C8.53794 24.542 10.5226 25.0272 12.5255 25.0278C19.4275 25.0278 25.0409 19.4162 25.0441 12.5186C25.0453 9.17592 23.7449 6.03297 21.3827 3.66887C19.0192 1.30414 15.8757 0.00125217 12.5305 0Z" fill="white"/>
<path d="M19.5189 5.52959C17.6531 3.6626 15.1732 2.63394 12.5336 2.63332C7.08416 2.63332 2.6521 7.0635 2.6496 12.5092C2.64897 14.3756 3.17113 16.1925 4.16034 17.7658L4.39575 18.1396L3.39714 21.784L7.13676 20.8036L7.49801 21.0177C9.01439 21.918 10.7537 22.3939 12.5267 22.3945H12.5305C17.9762 22.3945 22.4083 17.9637 22.4101 12.5173C22.4108 9.87839 21.3846 7.39658 19.5189 5.52959Z" fill="#7CA381"/>
<path fill-rule="evenodd" clip-rule="evenodd" d="M9.55909 7.54121C9.33682 7.0466 9.10267 7.03659 8.89043 7.02782C8.717 7.02031 8.51916 7.02093 8.32131 7.02093C8.12347 7.02093 7.80166 7.09544 7.52931 7.39283C7.25697 7.69022 6.48938 8.40834 6.48938 9.86963C6.48938 11.3309 7.55373 12.7434 7.70211 12.9412C7.8505 13.139 9.75693 16.2338 12.7759 17.4246C15.2846 18.4138 15.7955 18.2172 16.3402 18.1678C16.8849 18.1183 18.0977 17.4497 18.345 16.7559C18.5923 16.0622 18.5923 15.4681 18.5184 15.3441C18.4439 15.2202 18.246 15.1463 17.9493 14.9973C17.6525 14.8483 16.1918 14.1301 15.9195 14.0312C15.6472 13.9323 15.4493 13.8828 15.2508 14.1802C15.053 14.477 14.4839 15.1463 14.3105 15.3441C14.137 15.5426 13.9636 15.5676 13.6668 15.4186C13.3701 15.2696 12.4134 14.9566 11.2783 13.9448C10.3955 13.1578 9.7995 12.1855 9.62608 11.8881C9.45265 11.5914 9.60729 11.4305 9.7563 11.2821C9.88966 11.1487 10.0531 10.9352 10.2021 10.7618C10.3505 10.5884 10.3999 10.4644 10.4988 10.2666C10.5978 10.0681 10.5483 9.89467 10.4738 9.74629C10.4005 9.59728 9.82329 8.12848 9.55909 7.54121Z" fill="white"/>
</g>
<defs>
<clipPath id="clip0_5_1135">
<rect width="25.0435" height="25.0435" fill="white"/>
</clipPath>
</defs>
</svg>
